<svg xmlns="http://www.w3.org/2000/svg" width="900" height="900" viewBox="0 0 900 900" role="img">
<title>Original category image: Instant Hijab</title>
<desc>Original illustrated modest fashion scene generated for NUVAYLE. No source imagery used.</desc>

    <defs>
      <linearGradient id="g" x1="0" y1="0" x2="1" y2="1"><stop stop-color="#f2eee9"/><stop offset="1" stop-color="#bab1a8"/></linearGradient>
      <radialGradient id="r" cx="45%" cy="28%" r="60%"><stop stop-color="#fff" stop-opacity=".78"/><stop offset="1" stop-color="#f2eee9" stop-opacity="0"/></radialGradient>
      <filter id="s" x="-20%" y="-20%" width="140%" height="140%"><feDropShadow dx="0" dy="18" stdDeviation="22" flood-color="#171513" flood-opacity=".16"/></filter>
    </defs>
    <rect width="900" height="900" fill="url(#g)"/>
    <circle cx="610" cy="140" r="290" fill="url(#r)"/>
    <rect x="515" y="92" width="190" height="420" rx="95" fill="#fff" opacity=".30"/>
    <path d="M0 770 C220 690 430 828 900 740 L900 900 L0 900Z" fill="#fff" opacity=".38"/>
    
    <ellipse cx="390" cy="980" rx="270" ry="62" fill="#171513" opacity=".12"/>
    <g filter="url(#s)">
      <path d="M220 420 C100 560 90 800 230 970 L568 970 C696 780 680 552 550 420Z" fill="#786e65"/>
      <path d="M278 506 C212 640 208 810 300 958 C400 1014 566 995 622 942 C500 796 484 650 504 508Z" fill="#3c3631" opacity=".32"/>
      <path d="M252 505 C180 670 212 822 340 960" fill="none" stroke="#fff" stroke-opacity=".25" stroke-width="13" stroke-linecap="round"/>
      <path d="M518 508 C608 672 570 850 430 964" fill="none" stroke="#171513" stroke-opacity=".12" stroke-width="12" stroke-linecap="round"/>
      <ellipse cx="390" cy="353" rx="112" ry="134" fill="#786e65"/>
      <path d="M276 375 C300 246 488 220 520 378 C500 472 294 486 276 375Z" fill="#bab1a8"/>
      <ellipse cx="390" cy="352" rx="73" ry="92" fill="#a87360" opacity=".92"/>
      <path d="M340 372 C370 397 413 397 442 372" fill="none" stroke="#171513" stroke-width="5" stroke-opacity=".45" stroke-linecap="round"/>
      <circle cx="359" cy="338" r="5" fill="#171513" opacity=".52"/><circle cx="424" cy="338" r="5" fill="#171513" opacity=".52"/>
      <path d="M245 455 C322 528 468 530 541 454 C486 660 298 667 245 455Z" fill="#fff" opacity=".68"/>
    </g>
    <g opacity=".52">
      <circle cx="110" cy="870" r="8" fill="#3c3631"/><circle cx="135" cy="830" r="5" fill="#3c3631"/><circle cx="782" cy="144" r="6" fill="#3c3631"/>
    </g>
    
</svg>
