<svg xmlns="http://www.w3.org/2000/svg" width="1400" height="1000" viewBox="0 0 1400 1000" role="img">
<title>Original hero banner: Everyday Elegance</title>
<desc>Original illustrated modest fashion scene generated for NUVAYLE. No source imagery used.</desc>

    <defs>
      <linearGradient id="g" x1="0" y1="0" x2="1" y2="1"><stop stop-color="#f7efe6"/><stop offset="1" stop-color="#dfc6ad"/></linearGradient>
      <radialGradient id="r" cx="45%" cy="28%" r="60%"><stop stop-color="#fff" stop-opacity=".78"/><stop offset="1" stop-color="#f7efe6" stop-opacity="0"/></radialGradient>
      <filter id="s" x="-20%" y="-20%" width="140%" height="140%"><feDropShadow dx="0" dy="18" stdDeviation="22" flood-color="#2c2724" flood-opacity=".16"/></filter>
    </defs>
    <rect width="1400" height="1000" fill="url(#g)"/>
    <circle cx="90" cy="140" r="290" fill="url(#r)"/>
    <rect x="-5" y="92" width="190" height="420" rx="95" fill="#fff" opacity=".30"/>
    <path d="M0 870 C220 790 430 928 1400 840 L1400 1000 L0 1000Z" fill="#fff" opacity=".38"/>
    <path d="M60 120 C98 230 20 380 84 540" fill="none" stroke="#b69074" stroke-opacity=".18" stroke-width="5"/>
<path d="M102 120 C140 230 62 380 126 540" fill="none" stroke="#b69074" stroke-opacity=".18" stroke-width="5"/>
<path d="M144 120 C182 230 104 380 168 540" fill="none" stroke="#b69074" stroke-opacity=".18" stroke-width="5"/>
<path d="M186 120 C224 230 146 380 210 540" fill="none" stroke="#b69074" stroke-opacity=".18" stroke-width="5"/>
<path d="M228 120 C266 230 188 380 252 540" fill="none" stroke="#b69074" stroke-opacity=".18" stroke-width="5"/>
<path d="M270 120 C308 230 230 380 294 540" fill="none" stroke="#b69074" stroke-opacity=".18" stroke-width="5"/>
<path d="M312 120 C350 230 272 380 336 540" fill="none" stroke="#b69074" stroke-opacity=".18" stroke-width="5"/>
<path d="M354 120 C392 230 314 380 378 540" fill="none" stroke="#b69074" stroke-opacity=".18" stroke-width="5"/>
<path d="M396 120 C434 230 356 380 420 540" fill="none" stroke="#b69074" stroke-opacity=".18" stroke-width="5"/>
<path d="M438 120 C476 230 398 380 462 540" fill="none" stroke="#b69074" stroke-opacity=".18" stroke-width="5"/>
<path d="M480 120 C518 230 440 380 504 540" fill="none" stroke="#b69074" stroke-opacity=".18" stroke-width="5"/>
<path d="M522 120 C560 230 482 380 546 540" fill="none" stroke="#b69074" stroke-opacity=".18" stroke-width="5"/>
<path d="M564 120 C602 230 524 380 588 540" fill="none" stroke="#b69074" stroke-opacity=".18" stroke-width="5"/>
<path d="M606 120 C644 230 566 380 630 540" fill="none" stroke="#b69074" stroke-opacity=".18" stroke-width="5"/>
<path d="M648 120 C686 230 608 380 672 540" fill="none" stroke="#b69074" stroke-opacity=".18" stroke-width="5"/>
<path d="M690 120 C728 230 650 380 714 540" fill="none" stroke="#b69074" stroke-opacity=".18" stroke-width="5"/>
<path d="M732 120 C770 230 692 380 756 540" fill="none" stroke="#b69074" stroke-opacity=".18" stroke-width="5"/>
<path d="M774 120 C812 230 734 380 798 540" fill="none" stroke="#b69074" stroke-opacity=".18" stroke-width="5"/>
<path d="M816 120 C854 230 776 380 840 540" fill="none" stroke="#b69074" stroke-opacity=".18" stroke-width="5"/>
<path d="M858 120 C896 230 818 380 882 540" fill="none" stroke="#b69074" stroke-opacity=".18" stroke-width="5"/>
<path d="M900 120 C938 230 860 380 924 540" fill="none" stroke="#b69074" stroke-opacity=".18" stroke-width="5"/>
<path d="M942 120 C980 230 902 380 966 540" fill="none" stroke="#b69074" stroke-opacity=".18" stroke-width="5"/>

    <ellipse cx="520" cy="980" rx="270" ry="62" fill="#2c2724" opacity=".12"/>
    <g filter="url(#s)">
      <path d="M350 420 C230 560 220 800 360 970 L698 970 C826 780 810 552 680 420Z" fill="#b69074"/>
      <path d="M408 506 C342 640 338 810 430 958 C530 1014 696 995 752 942 C630 796 614 650 634 508Z" fill="#74584a" opacity=".32"/>
      <path d="M382 505 C310 670 342 822 470 960" fill="none" stroke="#fff" stroke-opacity=".25" stroke-width="13" stroke-linecap="round"/>
      <path d="M648 508 C738 672 700 850 560 964" fill="none" stroke="#2c2724" stroke-opacity=".12" stroke-width="12" stroke-linecap="round"/>
      <ellipse cx="520" cy="353" rx="112" ry="134" fill="#b69074"/>
      <path d="M406 375 C430 246 618 220 650 378 C630 472 424 486 406 375Z" fill="#dfc6ad"/>
      <ellipse cx="520" cy="352" rx="73" ry="92" fill="#a87360" opacity=".92"/>
      <path d="M470 372 C500 397 543 397 572 372" fill="none" stroke="#2c2724" stroke-width="5" stroke-opacity=".45" stroke-linecap="round"/>
      <circle cx="489" cy="338" r="5" fill="#2c2724" opacity=".52"/><circle cx="554" cy="338" r="5" fill="#2c2724" opacity=".52"/>
      <path d="M375 455 C452 528 598 530 671 454 C616 660 428 667 375 455Z" fill="#fff" opacity=".68"/>
    </g>
    <g opacity=".52">
      <circle cx="110" cy="870" r="8" fill="#74584a"/><circle cx="135" cy="830" r="5" fill="#74584a"/><circle cx="782" cy="144" r="6" fill="#74584a"/>
    </g>
    
</svg>
