<svg xmlns="http://www.w3.org/2000/svg" width="1000" height="1000" viewBox="0 0 1000 1000" role="img">
<title>Voile fabric texture image</title>
<desc>Original abstract close-up texture for Voile.</desc>

    <rect width="1000" height="1000" fill="#f2f5f4"/>
    <rect x="80" y="80" width="840" height="840" rx="32" fill="#c7d0d1" opacity=".55"/>
    <g clip-path="url(#c)"><path d="M0 80 C180 50 320 128 500 80 S820 52 1000 90" fill="none" stroke="#697a7d" stroke-opacity=".16" stroke-width="8"/>
<path d="M0 108 C180 78 320 156 500 108 S820 80 1000 118" fill="none" stroke="#9cacae" stroke-opacity=".16" stroke-width="8"/>
<path d="M0 136 C180 106 320 184 500 136 S820 108 1000 146" fill="none" stroke="#697a7d" stroke-opacity=".16" stroke-width="8"/>
<path d="M0 164 C180 134 320 212 500 164 S820 136 1000 174" fill="none" stroke="#9cacae" stroke-opacity=".16" stroke-width="8"/>
<path d="M0 192 C180 162 320 240 500 192 S820 164 1000 202" fill="none" stroke="#697a7d" stroke-opacity=".16" stroke-width="8"/>
<path d="M0 220 C180 190 320 268 500 220 S820 192 1000 230" fill="none" stroke="#9cacae" stroke-opacity=".16" stroke-width="8"/>
<path d="M0 248 C180 218 320 296 500 248 S820 220 1000 258" fill="none" stroke="#697a7d" stroke-opacity=".16" stroke-width="8"/>
<path d="M0 276 C180 246 320 324 500 276 S820 248 1000 286" fill="none" stroke="#9cacae" stroke-opacity=".16" stroke-width="8"/>
<path d="M0 304 C180 274 320 352 500 304 S820 276 1000 314" fill="none" stroke="#697a7d" stroke-opacity=".16" stroke-width="8"/>
<path d="M0 332 C180 302 320 380 500 332 S820 304 1000 342" fill="none" stroke="#9cacae" stroke-opacity=".16" stroke-width="8"/>
<path d="M0 360 C180 330 320 408 500 360 S820 332 1000 370" fill="none" stroke="#697a7d" stroke-opacity=".16" stroke-width="8"/>
<path d="M0 388 C180 358 320 436 500 388 S820 360 1000 398" fill="none" stroke="#9cacae" stroke-opacity=".16" stroke-width="8"/>
<path d="M0 416 C180 386 320 464 500 416 S820 388 1000 426" fill="none" stroke="#697a7d" stroke-opacity=".16" stroke-width="8"/>
<path d="M0 444 C180 414 320 492 500 444 S820 416 1000 454" fill="none" stroke="#9cacae" stroke-opacity=".16" stroke-width="8"/>
<path d="M0 472 C180 442 320 520 500 472 S820 444 1000 482" fill="none" stroke="#697a7d" stroke-opacity=".16" stroke-width="8"/>
<path d="M0 500 C180 470 320 548 500 500 S820 472 1000 510" fill="none" stroke="#9cacae" stroke-opacity=".16" stroke-width="8"/>
<path d="M0 528 C180 498 320 576 500 528 S820 500 1000 538" fill="none" stroke="#697a7d" stroke-opacity=".16" stroke-width="8"/>
<path d="M0 556 C180 526 320 604 500 556 S820 528 1000 566" fill="none" stroke="#9cacae" stroke-opacity=".16" stroke-width="8"/>
<path d="M0 584 C180 554 320 632 500 584 S820 556 1000 594" fill="none" stroke="#697a7d" stroke-opacity=".16" stroke-width="8"/>
<path d="M0 612 C180 582 320 660 500 612 S820 584 1000 622" fill="none" stroke="#9cacae" stroke-opacity=".16" stroke-width="8"/>
<path d="M0 640 C180 610 320 688 500 640 S820 612 1000 650" fill="none" stroke="#697a7d" stroke-opacity=".16" stroke-width="8"/>
<path d="M0 668 C180 638 320 716 500 668 S820 640 1000 678" fill="none" stroke="#9cacae" stroke-opacity=".16" stroke-width="8"/>
<path d="M0 696 C180 666 320 744 500 696 S820 668 1000 706" fill="none" stroke="#697a7d" stroke-opacity=".16" stroke-width="8"/>
<path d="M0 724 C180 694 320 772 500 724 S820 696 1000 734" fill="none" stroke="#9cacae" stroke-opacity=".16" stroke-width="8"/>
<path d="M0 752 C180 722 320 800 500 752 S820 724 1000 762" fill="none" stroke="#697a7d" stroke-opacity=".16" stroke-width="8"/>
<path d="M0 780 C180 750 320 828 500 780 S820 752 1000 790" fill="none" stroke="#9cacae" stroke-opacity=".16" stroke-width="8"/>
<path d="M0 808 C180 778 320 856 500 808 S820 780 1000 818" fill="none" stroke="#697a7d" stroke-opacity=".16" stroke-width="8"/>
<path d="M0 836 C180 806 320 884 500 836 S820 808 1000 846" fill="none" stroke="#9cacae" stroke-opacity=".16" stroke-width="8"/>
<path d="M0 864 C180 834 320 912 500 864 S820 836 1000 874" fill="none" stroke="#697a7d" stroke-opacity=".16" stroke-width="8"/>
<path d="M0 892 C180 862 320 940 500 892 S820 864 1000 902" fill="none" stroke="#9cacae" stroke-opacity=".16" stroke-width="8"/>
<path d="M40 0 C75 180 -5 430 55 1000" fill="none" stroke="#fff" stroke-opacity=".18" stroke-width="5"/>
<path d="M90 0 C125 180 45 430 105 1000" fill="none" stroke="#fff" stroke-opacity=".18" stroke-width="5"/>
<path d="M140 0 C175 180 95 430 155 1000" fill="none" stroke="#fff" stroke-opacity=".18" stroke-width="5"/>
<path d="M190 0 C225 180 145 430 205 1000" fill="none" stroke="#fff" stroke-opacity=".18" stroke-width="5"/>
<path d="M240 0 C275 180 195 430 255 1000" fill="none" stroke="#fff" stroke-opacity=".18" stroke-width="5"/>
<path d="M290 0 C325 180 245 430 305 1000" fill="none" stroke="#fff" stroke-opacity=".18" stroke-width="5"/>
<path d="M340 0 C375 180 295 430 355 1000" fill="none" stroke="#fff" stroke-opacity=".18" stroke-width="5"/>
<path d="M390 0 C425 180 345 430 405 1000" fill="none" stroke="#fff" stroke-opacity=".18" stroke-width="5"/>
<path d="M440 0 C475 180 395 430 455 1000" fill="none" stroke="#fff" stroke-opacity=".18" stroke-width="5"/>
<path d="M490 0 C525 180 445 430 505 1000" fill="none" stroke="#fff" stroke-opacity=".18" stroke-width="5"/>
<path d="M540 0 C575 180 495 430 555 1000" fill="none" stroke="#fff" stroke-opacity=".18" stroke-width="5"/>
<path d="M590 0 C625 180 545 430 605 1000" fill="none" stroke="#fff" stroke-opacity=".18" stroke-width="5"/>
<path d="M640 0 C675 180 595 430 655 1000" fill="none" stroke="#fff" stroke-opacity=".18" stroke-width="5"/>
<path d="M690 0 C725 180 645 430 705 1000" fill="none" stroke="#fff" stroke-opacity=".18" stroke-width="5"/>
<path d="M740 0 C775 180 695 430 755 1000" fill="none" stroke="#fff" stroke-opacity=".18" stroke-width="5"/>
<path d="M790 0 C825 180 745 430 805 1000" fill="none" stroke="#fff" stroke-opacity=".18" stroke-width="5"/>
<path d="M840 0 C875 180 795 430 855 1000" fill="none" stroke="#fff" stroke-opacity=".18" stroke-width="5"/>
<path d="M890 0 C925 180 845 430 905 1000" fill="none" stroke="#fff" stroke-opacity=".18" stroke-width="5"/>
<path d="M940 0 C975 180 895 430 955 1000" fill="none" stroke="#fff" stroke-opacity=".18" stroke-width="5"/>
<path d="M990 0 C1025 180 945 430 1005 1000" fill="none" stroke="#fff" stroke-opacity=".18" stroke-width="5"/>
</g>
    <defs><clipPath id="c"><rect x="80" y="80" width="840" height="840" rx="32"/></clipPath></defs>
    <circle cx="805" cy="205" r="118" fill="#fff" opacity=".24"/>
    <text x="125" y="826" font-family="Georgia,serif" font-size="58" fill="#252d2e">Voile</text>
    <text x="128" y="874" font-family="Arial,sans-serif" font-size="22" fill="#252d2e" opacity=".58" letter-spacing="4">FABRIC TEXTURE STUDY</text>
    
</svg>
